<?xml version="1.0" standalone="no"?>
<!DOCTYPE svg PUBLIC "-//W3C//DTD SVG 20010904//EN"
 "http://www.w3.org/TR/2001/REC-SVG-20010904/DTD/svg10.dtd">
<svg version="1.0" xmlns="http://www.w3.org/2000/svg"
 width="700.000000pt" height="700.000000pt" viewBox="0 0 700.000000 700.000000"
 preserveAspectRatio="xMidYMid meet">
<metadata>
Created by potrace 1.14, written by Peter Selinger 2001-2017
</metadata>
<g transform="translate(0.000000,700.000000) scale(0.100000,-0.100000)"
fill="#000000" stroke="none">
<path d="M1505 6978 c-14 -60 -976 -4435 -978 -4447 -1 -10 35 -22 134 -44
l136 -29 -8 -37 c-65 -268 -318 -1446 -312 -1452 5 -3 123 -32 263 -63 140
-30 1123 -247 2183 -481 1652 -364 2006 -439 2007 -422 0 1 220 999 489 2217
269 1218 488 2216 487 2217 0 0 -1002 222 -2225 492 -1223 269 -2226 493
-2229 496 -3 3 -3 7 -1 9 2 2 1005 130 2229 285 1224 155 2238 285 2254 289
21 5 -537 132 -2180 495 -1215 269 -2217 491 -2226 493 -12 4 -19 -2 -23 -18z
m2499 -5244 c78 -20 171 -72 217 -121 173 -184 169 -463 -8 -634 -95 -92 -185
-129 -312 -129 -165 0 -294 68 -379 199 -116 179 -90 424 60 567 119 115 270
157 422 118z"/>
</g>
</svg>
